<?xml version="1.0" encoding="iso-8859-1"?>
<!-- Generator: Adobe Illustrator 16.0.0, SVG Export Plug-In . SVG Version: 6.00 Build 0)  -->
<!DOCTYPE svg PUBLIC "-//W3C//DTD SVG 1.1//EN" "http://www.w3.org/Graphics/SVG/1.1/DTD/svg11.dtd">
<svg version="1.1" id="Capa_1" xmlns="http://www.w3.org/2000/svg" xmlns:xlink="http://www.w3.org/1999/xlink" x="0px" y="0px"
	 width="427.792px" height="427.792px" viewBox="0 0 427.792 427.792" style="enable-background:new 0 0 427.792 427.792;"
	 xml:space="preserve">
<g>
	<g>
		<path d="M210.015,0.15c-4.662,0.048-9.054,2.196-12.062,5.934L0,251.34l18.067,14.584L210.258,27.762l199.755,238.319
			l17.778-14.909L222.179,5.863C219.107,2.182,214.636,0.135,210.015,0.15z"/>
		<path d="M213.61,259.698c1.191-0.401,2.702-2.356,2.78-3.596c1.747-29.909-22.95-69.781-31.844-83.093
			c-7.16,2.854-14.127,7.467-20.559,14.497c0,0-12.845,8.62-17.402,50.503C170.61,269.123,200.463,264.035,213.61,259.698z"/>
		<path d="M308.89,206.61l-39.359-9.607c0,0-1.122-9.496-12.283-13.398c-8.135-2.851-36.165-18.961-63.744-13.271
			c10.427,15.871,33.622,54.992,31.788,86.283c-0.273,4.92-4.184,10.003-8.886,11.557c-4.52,1.504-12.632,3.586-22.491,3.586
			c-14.284,0-32.225-4.393-48.388-21.282c-0.317,5.367-0.498,11.172-0.53,17.453c-0.181,32.397-41.333,63.114-41.333,63.114
			l-5.481,11.359c11.187,24.222,28.724,44.925,50.496,59.95c0.987-15.473,4.867-27.594,9.361-36.703
			c8.511-17.301,20.447-26.903,26.538-30.966c1.31-35.708,12.9-46.144,22.569-48.53c2.97-0.736,6.101-0.102,8.564,1.747
			c2.803,2.092,4.606,5.545,4.789,9.252c0.497,9.598,6.17,16.336,8.86,19.012c4.362,0.406,8.526,1.097,12.446,2.047l0.36-3.367
			l2.996-29.092c0.508-4.91,4.921-9.049,9.806-9.749c18.55-2.702,59.88-13.69,62.566-58.341
			C317.843,212.739,313.684,207.786,308.89,206.61z M247.569,216.982c-2.777,0-5.032-2.245-5.032-5.025s2.255-5.025,5.032-5.025
			c2.783,0,5.027,2.245,5.027,5.025C252.586,214.732,250.347,216.982,247.569,216.982z"/>
		<path d="M269.542,349.929c-1.488-12.659-19.357-23.09-42.447-24.572c0,0-12.26-9.425-13.083-25.694
			c-0.135-2.463-1.976-4.911-4.367-4.321c-6.17,1.518-16.646,9.439-17.168,45.615c0,0-33.558,16.93-35.983,65.739
			c21.511,12.924,46.578,20.505,73.334,20.946l-0.3-6.992c-0.111-2.463,1.676-5.164,3.981-6.027l28.584-10.72
			c0,0,13.405,0.752,18.981-9.312c2.823-5.073,5.443-8.618,7.373-10.902c1.579-1.879,1.554-4.565-0.213-6.282
			C282.394,371.77,270.654,359.389,269.542,349.929z M252.586,362.182c-2.772,0-5.022-2.239-5.022-5.021
			c0-2.788,2.25-5.032,5.022-5.032c2.782,0,5.032,2.244,5.032,5.032C257.619,359.942,255.369,362.182,252.586,362.182z"/>
	</g>
</g>
<g>
</g>
<g>
</g>
<g>
</g>
<g>
</g>
<g>
</g>
<g>
</g>
<g>
</g>
<g>
</g>
<g>
</g>
<g>
</g>
<g>
</g>
<g>
</g>
<g>
</g>
<g>
</g>
<g>
</g>
</svg>
